<?xml version="1.0" encoding="utf-8"?>
<!-- Generator: Adobe Illustrator 21.0.2, SVG Export Plug-In . SVG Version: 6.00 Build 0)  -->
<svg version="1.1" id="Layer_1" xmlns="http://www.w3.org/2000/svg" xmlns:xlink="http://www.w3.org/1999/xlink" x="0px" y="0px"
	 viewBox="0 0 72 72" style="enable-background:new 0 0 72 72;" xml:space="preserve">
<style type="text/css">
	.st0{fill:#563D7C;}
	.st1{fill:#FFFFFF;}
</style>
<g>
	<path class="st0" d="M4,59.7c0,4.6,3.7,8.3,8.3,8.3h47.5c4.6,0,8.3-3.7,8.3-8.3V12.3C68,7.7,64.3,4,59.7,4H12.3C7.7,4,4,7.7,4,12.3
		V59.7L4,59.7z"/>
	<path class="st1" d="M30.5,32.3v-9.1h8c0.8,0,1.5,0.1,2.2,0.2c0.7,0.1,1.3,0.4,1.9,0.7c0.5,0.3,1,0.8,1.3,1.4
		c0.3,0.6,0.5,1.3,0.5,2.2c0,1.6-0.5,2.8-1.5,3.5c-1,0.7-2.2,1.1-3.7,1.1H30.5L30.5,32.3z M22,16.6v38.8h18.8c1.7,0,3.4-0.2,5.1-0.7
		s3.1-1.1,4.4-2c1.3-0.9,2.3-2.1,3.1-3.5c0.8-1.4,1.1-3.1,1.1-5.1c0-2.4-0.6-4.5-1.8-6.2c-1.2-1.7-3-2.9-5.3-3.6
		c1.7-0.8,3-1.9,3.9-3.2c0.9-1.3,1.3-2.9,1.3-4.9c0-1.8-0.3-3.3-0.9-4.6c-0.6-1.2-1.4-2.2-2.5-3c-1.1-0.7-2.4-1.3-3.9-1.6
		c-1.5-0.3-3.2-0.5-5-0.5H22L22,16.6z M30.5,48.8V38.1h9.3c1.8,0,3.3,0.4,4.5,1.3c1.1,0.9,1.7,2.3,1.7,4.3c0,1-0.2,1.8-0.5,2.5
		s-0.8,1.2-1.4,1.5c-0.6,0.4-1.2,0.7-2,0.8c-0.8,0.2-1.6,0.2-2.4,0.2H30.5L30.5,48.8z"/>
</g>
</svg>
