<?xml version="1.0" encoding="utf-8"?>
<!-- Generator: Adobe Illustrator 21.0.2, SVG Export Plug-In . SVG Version: 6.00 Build 0)  -->
<svg version="1.1" id="Layer_1" xmlns="http://www.w3.org/2000/svg" xmlns:xlink="http://www.w3.org/1999/xlink" x="0px" y="0px"
	 viewBox="0 0 72 72" style="enable-background:new 0 0 72 72;" xml:space="preserve">
<style type="text/css">
	.st0{fill:#6762A6;}
	.st1{fill:#FFFFFF;}
</style>
<g>
	<path class="st0" d="M18.4,71v-6.1c0-0.4-0.3-0.6-0.7-0.6c-0.7,0-1.7,0.2-2.5,0.6V71h-1.7V59.6h1.7v3.8c0.8-0.3,1.8-0.6,2.8-0.6
		c1.6,0,2.2,1,2.2,2.3V71L18.4,71L18.4,71z M23.3,67.3c0.1,2.1,0.5,2.5,1.7,2.5c1,0,2.1-0.3,3-0.7l0.3,1.3c-0.9,0.4-2,0.8-3.4,0.8
		c-2.9,0-3.3-1.6-3.3-4.1c0-1.4,0.1-2.6,0.4-3.8c0.9-0.3,2-0.5,3.5-0.5c2.4,0,3.1,1.3,3.1,3.6v0.9L23.3,67.3L23.3,67.3z M25.5,64.3
		c-0.5,0-1.3,0-2,0.1c-0.1,0.3-0.2,0.8-0.2,1.7h3.6C26.9,64.9,26.7,64.3,25.5,64.3L25.5,64.3z M31.8,64.8V71h-1.7v-7
		c1.5-0.8,3-1,4-1.1v1.4C33.4,64.4,32.5,64.5,31.8,64.8L31.8,64.8z M38.7,71.2c-2.6,0-3.7-1.3-3.7-4.2c0-3.1,1.5-4.2,3.7-4.2
		c2.6,0,3.7,1.3,3.7,4.2C42.4,70.1,40.9,71.2,38.7,71.2L38.7,71.2z M38.7,64.3c-1.3,0-2.1,0.8-2.1,2.8c0,2.2,0.6,2.7,2.1,2.7
		c1.3,0,2.1-0.7,2.1-2.8C40.7,64.8,40.1,64.3,38.7,64.3L38.7,64.3z M50.7,71h-2c-0.5-1.3-1.1-2.6-2.2-3.7h-0.9V71h-1.7V59.6h1.7v6.5
		h0.8c0.9-0.9,1.6-2,2-3.1h1.9c-0.7,1.3-1.5,2.5-2.5,3.5C49.1,68,50,69.5,50.7,71L50.7,71z M54,71.2c-1.6,0-2.2-1-2.2-2.3V63h1.7
		v6.1c0,0.4,0.3,0.6,0.7,0.6c0.7,0,1.8-0.2,2.6-0.6V63h1.7V70C56.5,71.1,55,71.2,54,71.2z M53.2,56.7H18.8c-2.9,0-5.3-2.4-5.3-5.3
		V6.1c0-2.9,2.4-5.3,5.3-5.3h34.5c2.9,0,5.3,2.4,5.3,5.3v45.3C58.6,54.3,56.2,56.7,53.2,56.7L53.2,56.7z"/>
	<path class="st1" d="M40.7,49V26.8c0,0,1.4-5.3-17.8,2.2c0,0.1,0-20.5,0-20.5l6.3,0v13.2c0,0,17.6-6.9,17.6,5.3V49H40.7L40.7,49z
		 M44.3,16.4h-6.7c2.4-2.9,4.6-8,4.6-8h6.9C49.1,8.4,47.9,11.7,44.3,16.4L44.3,16.4z M23,49V36.3l6.3,6.3L23,49L23,49z"/>
</g>
</svg>
