<?xml version="1.0" encoding="utf-8"?>
<!-- Generator: Adobe Illustrator 21.0.2, SVG Export Plug-In . SVG Version: 6.00 Build 0)  -->
<svg version="1.1" id="Layer_1" xmlns="http://www.w3.org/2000/svg" xmlns:xlink="http://www.w3.org/1999/xlink" x="0px" y="0px"
	 viewBox="0 0 72 72" style="enable-background:new 0 0 72 72;" xml:space="preserve">
<style type="text/css">
	.st0{fill:#E44D26;}
	.st1{fill:#F16529;}
	.st2{fill:#EBEBEB;}
	.st3{fill:#FFFFFF;}
</style>
<g>
	<path class="st0" d="M60.2,15.3l-4.4,49.4L36,70.1l-19.8-5.5l-4.4-49.4H60.2L60.2,15.3z"/>
	<path class="st1" d="M36,65.9l16-4.4l3.8-42.2H36V65.9z"/>
	<path class="st2" d="M27.4,31.4H36v-6.1H20.8L21,27l1.5,16.7H36v-6.1h-8L27.4,31.4z M28.8,46.7h-6.1l0.8,9.5L36,59.7l0,0v-6.3l0,0
		l-6.7-1.8L28.8,46.7L28.8,46.7z"/>
	<path class="st3" d="M16.3,1.9h3.1v3h2.8v-3h3.1v9.2h-3.1V8h-2.8v3.1h-3.1L16.3,1.9L16.3,1.9z M29.3,4.9h-2.7V1.9h8.5v3.1h-2.7v6.2
		h-3.1L29.3,4.9L29.3,4.9L29.3,4.9z M36.5,1.9h3.2l2,3.2l2-3.2h3.2v9.2h-3.1V6.5l-2.1,3.3h-0.1l-2.1-3.3v4.6h-3V1.9z M48.4,1.9h3.1
		V8h4.3v3h-7.4L48.4,1.9L48.4,1.9z"/>
	<path class="st3" d="M36,43.7h7.5l-0.7,7.9L36,53.4v6.3l12.4-3.4l0.1-1l1.4-15.9l0.1-1.6H36V43.7L36,43.7z M36,31.4L36,31.4l14.6,0
		l0.1-1.4L51,27l0.1-1.6H36V31.4L36,31.4z"/>
</g>
</svg>
