<?xml version="1.0" encoding="utf-8"?>
<!-- Generator: Adobe Illustrator 21.0.2, SVG Export Plug-In . SVG Version: 6.00 Build 0)  -->
<svg version="1.1" id="Layer_1" xmlns="http://www.w3.org/2000/svg" xmlns:xlink="http://www.w3.org/1999/xlink" x="0px" y="0px"
	 viewBox="0 0 72 72" style="enable-background:new 0 0 72 72;" xml:space="preserve">
<style type="text/css">
	.st0{fill:#5D87A1;}
	.st1{fill:#F8981D;}
</style>
<g>
	<path class="st0" d="M18.3,55h-2.6c-0.1-4.4-0.3-8.6-0.8-12.5h0l-4,12.5h-2l-4-12.5h0C4.6,46.3,4.4,50.4,4.3,55H1.9
		c0.2-5.6,0.5-10.8,1.2-15.7h3.3l3.8,11.5h0L14,39.3h3.1C17.8,45,18.2,50.3,18.3,55 M29.7,43.4c-1.1,5.8-2.5,10-4.2,12.7
		c-1.4,2-2.9,3-4.5,3c-0.4,0-1-0.1-1.6-0.4v-1.4c0.3,0,0.7,0.1,1.1,0.1c0.8,0,1.4-0.2,1.8-0.6c0.6-0.5,0.8-1.1,0.8-1.7
		c0-0.4-0.2-1.3-0.7-2.7l-2.9-9h2.6l2.1,6.7c0.5,1.5,0.7,2.6,0.6,3.2c1.1-3,1.9-6.3,2.4-9.9L29.7,43.4L29.7,43.4L29.7,43.4z"/>
	<path class="st1" d="M64.7,55h-7.5V39.3h2.5v13.8h5V55z M55.3,55.4L52.4,54c0.3-0.2,0.5-0.4,0.7-0.7c1.2-1.4,1.8-3.6,1.8-6.4
		c0-5.2-2-7.8-6.1-7.8c-2,0-3.6,0.7-4.7,2c-1.2,1.4-1.8,3.6-1.8,6.4c0,2.8,0.5,4.8,1.6,6.1c1,1.2,2.5,1.7,4.5,1.7
		c0.7,0,1.4-0.1,2.1-0.3l3.8,2.2L55.3,55.4z M45.9,51.9c-0.6-1-1-2.7-1-4.9c0-4,1.2-5.9,3.6-5.9c1.3,0,2.2,0.5,2.8,1.4
		c0.6,1,1,2.7,1,4.9c0,4-1.2,6-3.6,6C47.4,53.3,46.5,52.8,45.9,51.9 M41.2,50.7c0,1.3-0.5,2.4-1.5,3.3c-1,0.9-2.3,1.3-3.9,1.3
		c-1.5,0-3-0.5-4.5-1.5l0.7-1.3c1.2,0.6,2.4,0.9,3.4,0.9c0.9,0,1.7-0.2,2.2-0.6c0.5-0.4,0.9-1,0.9-1.7c0-0.9-0.7-1.7-1.8-2.4
		c-1.1-0.6-3.3-1.9-3.3-1.9c-1.2-0.9-1.8-1.8-1.8-3.3c0-1.3,0.4-2.3,1.3-3.1c0.9-0.8,2-1.2,3.5-1.2c1.5,0,2.8,0.4,4,1.2l-0.6,1.3
		c-1-0.4-2-0.7-3-0.7c-0.8,0-1.4,0.2-1.9,0.6c-0.4,0.4-0.7,0.9-0.7,1.5c0,0.9,0.7,1.7,1.9,2.4c1.1,0.6,3.4,1.9,3.4,1.9
		C40.6,48.2,41.2,49.1,41.2,50.7"/>
	<path class="st0" d="M67.9,34c-1.5,0-2.7,0.1-3.7,0.5c-0.3,0.1-0.7,0.1-0.8,0.5c0.2,0.2,0.2,0.4,0.3,0.6c0.2,0.4,0.6,0.9,1,1.2
		c0.4,0.3,0.8,0.6,1.2,0.9c0.7,0.5,1.6,0.7,2.3,1.2c0.4,0.3,0.8,0.6,1.3,0.9c0.2,0.2,0.3,0.4,0.6,0.5v-0.1c-0.1-0.2-0.2-0.4-0.3-0.6
		L69.2,39c-0.6-0.7-1.2-1.4-2-1.9c-0.6-0.4-1.9-1-2.2-1.7l0,0c0.4,0,0.9-0.2,1.3-0.3c0.6-0.2,1.2-0.1,1.9-0.3
		c0.3-0.1,0.6-0.2,0.9-0.3v-0.2c-0.3-0.3-0.6-0.8-0.9-1.1c-1-0.8-2-1.7-3.1-2.3c-0.6-0.4-1.3-0.6-2-0.9c-0.2-0.1-0.6-0.2-0.7-0.4
		c-0.3-0.4-0.5-1-0.8-1.5c-0.5-1-1.1-2.2-1.6-3.3c-0.3-0.7-0.6-1.5-1-2.2c-2-3.2-4.1-5.2-7.3-7.1c-0.7-0.4-1.5-0.6-2.4-0.8l-1.4-0.1
		c-0.3-0.1-0.6-0.5-0.9-0.7c-1.1-0.7-3.9-2.2-4.7-0.2c-0.5,1.2,0.8,2.4,1.2,3.1c0.3,0.4,0.7,0.9,1,1.4c0.1,0.3,0.2,0.7,0.3,1
		c0.3,0.8,0.6,1.8,1,2.5c0.2,0.4,0.4,0.8,0.7,1.2c0.2,0.2,0.4,0.3,0.5,0.6c-0.3,0.4-0.3,0.9-0.4,1.4c-0.7,2.1-0.4,4.8,0.6,6.4
		c0.3,0.5,1,1.5,2,1.1c0.9-0.3,0.7-1.4,0.9-2.4c0.1-0.2,0-0.4,0.1-0.5v0c0.3,0.5,0.5,1,0.8,1.6c0.6,0.9,1.6,1.9,2.5,2.5
		c0.5,0.3,0.8,0.9,1.4,1.1V35h0c-0.1-0.2-0.3-0.2-0.4-0.4c-0.3-0.3-0.7-0.8-1-1.1c-0.8-1.1-1.5-2.2-2.1-3.5
		c-0.3-0.6-0.6-1.2-0.8-1.8c-0.1-0.2-0.1-0.6-0.3-0.7c-0.3,0.4-0.7,0.8-0.9,1.3c-0.4,0.8-0.4,1.8-0.5,2.9l-0.1,0
		c-0.6-0.2-0.8-0.8-1-1.3c-0.6-1.3-0.7-3.5-0.2-5.1c0.1-0.4,0.7-1.7,0.5-2c-0.1-0.4-0.5-0.6-0.7-0.9c-0.2-0.4-0.5-0.8-0.7-1.2
		c-0.5-1.1-0.7-2.2-1.2-3.3c-0.2-0.5-0.6-1-0.9-1.5c-0.4-0.5-0.8-0.9-1-1.5c-0.1-0.2-0.2-0.6-0.1-0.8c0-0.2,0.1-0.2,0.3-0.2
		c0.2-0.2,0.9,0.1,1.2,0.2c0.7,0.3,1.3,0.6,1.9,0.9c0.3,0.2,0.6,0.6,0.9,0.6h0.4c0.6,0.1,1.3,0,1.9,0.2c1,0.3,1.9,0.8,2.7,1.3
		c2.5,1.6,4.5,3.8,5.9,6.5c0.2,0.4,0.3,0.8,0.5,1.3c0.4,0.9,0.9,1.9,1.3,2.8c0.4,0.9,0.8,1.8,1.3,2.5c0.3,0.4,1.4,0.6,1.9,0.8
		c0.4,0.2,1,0.3,1.3,0.5c0.6,0.4,1.3,0.9,1.9,1.3C66.9,33.2,67.8,33.7,67.9,34 M48.5,17.6c-0.3,0-0.5,0-0.8,0.1v0h0
		c0.2,0.3,0.4,0.5,0.6,0.8c0.2,0.3,0.3,0.6,0.4,0.9l0,0c0.3-0.2,0.4-0.5,0.4-0.9c-0.1-0.1-0.1-0.3-0.2-0.4
		C48.9,17.8,48.7,17.7,48.5,17.6"/>
	<path class="st1" d="M69.7,55h0.4v-1.9h-0.6L69,54.4l-0.5-1.3h-0.6V55h0.4v-1.5h0l0.5,1.5h0.3l0.5-1.5L69.7,55L69.7,55z M66.5,55
		h0.4v-1.6h0.5v-0.3h-1.5v0.3h0.6L66.5,55L66.5,55z"/>
</g>
</svg>
