<?xml version="1.0" encoding="utf-8"?>
<!-- Generator: Adobe Illustrator 21.0.2, SVG Export Plug-In . SVG Version: 6.00 Build 0)  -->
<svg version="1.1" id="Layer_1" xmlns="http://www.w3.org/2000/svg" xmlns:xlink="http://www.w3.org/1999/xlink" x="0px" y="0px"
	 viewBox="0 0 72 72" style="enable-background:new 0 0 72 72;" xml:space="preserve">
<style type="text/css">
	.st0{fill:#8CC84B;}
</style>
<g>
	<path class="st0" d="M32.9,1.7c1.7-1,4-1,5.7,0c8.7,4.9,17.3,9.8,26,14.7c1.6,0.9,2.7,2.7,2.7,4.6v29.5c0,2-1.2,3.8-2.9,4.7
		c-8.6,4.9-17.3,9.7-25.9,14.6c-1.8,1-4.1,0.9-5.8-0.2c-2.6-1.5-5.2-3-7.8-4.5c-0.5-0.3-1.1-0.6-1.5-1.1c0.3-0.4,0.9-0.5,1.4-0.7
		c1.1-0.3,2.1-0.9,3.1-1.4c0.3-0.2,0.6-0.1,0.8,0c2.2,1.3,4.4,2.6,6.6,3.8c0.5,0.3,1-0.1,1.4-0.3c8.5-4.8,17-9.6,25.4-14.4
		c0.3-0.2,0.5-0.5,0.5-0.8c0-9.7,0-19.4,0-29.2c0-0.4-0.2-0.7-0.5-0.9c-8.6-4.8-17.2-9.7-25.8-14.6c-0.3-0.2-0.7-0.2-1,0
		C26.6,10.6,18,15.4,9.4,20.3c-0.4,0.2-0.6,0.5-0.5,0.9c0,9.7,0,19.4,0,29.2c0,0.3,0.2,0.7,0.5,0.8c2.3,1.3,4.6,2.6,6.9,3.9
		c1.3,0.7,2.9,1.1,4.3,0.6c1.3-0.5,2.1-1.7,2.1-3.1c0-9.7,0-19.3,0-29c0-0.4,0.4-0.8,0.8-0.7c1.1,0,2.2,0,3.3,0
		c0.5,0,0.8,0.5,0.7,0.9c0,9.7,0,19.4,0,29.2c0,2.6-1.1,5.4-3.5,6.7c-3,1.5-6.6,1.2-9.5-0.3C12,58,9.6,56.6,7.1,55.2
		c-1.7-0.9-2.9-2.8-2.9-4.7V21c0-1.9,1.1-3.8,2.8-4.7C15.6,11.5,24.3,6.6,32.9,1.7z"/>
	<path class="st0" d="M40.4,22.1c3.8-0.2,7.8-0.1,11.2,1.7c2.6,1.4,4.1,4.4,4.1,7.3c-0.1,0.4-0.5,0.6-0.9,0.6c-1.1,0-2.2,0-3.3,0
		c-0.5,0-0.7-0.4-0.8-0.8c-0.3-1.4-1.1-2.8-2.4-3.4c-2-1-4.4-1-6.6-0.9c-1.6,0.1-3.3,0.2-4.7,1.2c-1,0.7-1.4,2.2-1,3.3
		c0.4,0.8,1.3,1.1,2.1,1.4c4.5,1.2,9.3,1.1,13.8,2.6c1.8,0.6,3.6,1.9,4.3,3.8c0.8,2.6,0.5,5.7-1.4,7.8c-1.5,1.7-3.7,2.6-5.8,3.1
		c-2.9,0.6-5.9,0.7-8.8,0.4c-2.8-0.3-5.6-1-7.7-2.9c-1.8-1.6-2.7-4-2.6-6.4c0-0.4,0.4-0.7,0.8-0.6c1.1,0,2.2,0,3.3,0
		c0.4,0,0.8,0.3,0.8,0.8c0.2,1.3,0.7,2.7,1.9,3.5c2.2,1.4,5,1.3,7.6,1.4c2.1-0.1,4.5-0.1,6.2-1.5c0.9-0.8,1.2-2.1,0.9-3.3
		c-0.3-1-1.3-1.4-2.2-1.7c-4.5-1.4-9.3-0.9-13.8-2.5c-1.8-0.6-3.5-1.8-4.2-3.7c-1-2.6-0.5-5.9,1.5-7.9
		C34.9,23.2,37.7,22.4,40.4,22.1L40.4,22.1z"/>
</g>
</svg>
